<svg xmlns="http://www.w3.org/2000/svg" version="1.1" xmlns:xlink="http://www.w3.org/1999/xlink" xmlns:svgjs="http://svgjs.dev/svgjs" width="1000" height="623" viewBox="0 0 1000 623"><g transform="matrix(1,0,0,1,-0.6060606060606233,0.2522267206477409)"><svg viewBox="0 0 396 247" data-background-color="#000000" preserveAspectRatio="xMidYMid meet" height="623" width="1000" xmlns="http://www.w3.org/2000/svg" xmlns:xlink="http://www.w3.org/1999/xlink"><g id="tight-bounds" transform="matrix(1,0,0,1,0.2400000000000091,-0.09999999999999432)"><svg viewBox="0 0 395.52 247.2" height="247.2" width="395.52"><g><svg></svg></g><g><svg viewBox="0 0 395.52 247.2" height="247.2" width="395.52"><g transform="matrix(1,0,0,1,75.54432,53.58521595358954)"><svg viewBox="0 0 244.43135999999998 140.0295680928209" height="140.0295680928209" width="244.43135999999998"><g><svg viewBox="0 0 244.43135999999998 140.0295680928209" height="140.0295680928209" width="244.43135999999998"><g><svg viewBox="0 0 244.43135999999998 140.0295680928209" height="140.0295680928209" width="244.43135999999998"><g><svg viewBox="0 0 244.43135999999998 140.0295680928209" height="140.0295680928209" width="244.43135999999998"><g id="textblocktransform"><svg viewBox="0 0 244.43135999999998 140.0295680928209" height="140.0295680928209" width="244.43135999999998" id="textblock"><g><svg viewBox="0 0 244.43135999999998 140.0295680928209" height="140.0295680928209" width="244.43135999999998"><g transform="matrix(1,0,0,1,0,0)"><svg width="244.43135999999998" viewBox="-0.699999988079071 -36.79999923706055 68.93999481201172 39.5" height="140.0295680928209" data-palette-color="#ffffff"><path d="M18.9-24.75L18.9-24.75Q17.55-24.75 17.55-25.55L17.55-25.55Q17.55-26.8 20.48-29.18 23.4-31.55 26.95-32.95L26.95-32.95Q27-33.05 27-33.3L27-33.3Q27-35.55 23.9-35.55 20.8-35.55 16.28-32.88 11.75-30.2 8.35-26.58 4.95-22.95 4.95-20.45L4.95-20.45Q4.95-17.3 10.75-17.3L10.75-17.3Q14.15-17.3 16.6-18.9L16.6-18.9Q16.75-19.1 16.95-19.1L16.95-19.1Q17.3-19.1 17.3-18.57 17.3-18.05 16.95-17.9L16.95-17.9Q10.7-15.05 6.6-11.4L6.6-11.4Q4.85-9.85 3.43-7.53 2-5.2 2-3.23 2-1.25 3.03 0.03 4.05 1.3 6.85 1.3L6.85 1.3Q7.8 1.25 9 1 10.2 0.75 13.05-0.7 15.9-2.15 18.5-4.55L18.5-4.55Q18.9-5.05 19.15-5.05L19.15-5.05Q19.45-5 19.45-4.65L19.45-4.65Q19.45-3.8 17.1-2.05 14.75-0.3 11.23 1.2 7.7 2.7 5.05 2.7L5.05 2.7Q1.25 2.7-0.15 0.1L-0.15 0.1Q-0.7-0.95-0.7-2.3L-0.7-2.3Q-0.7-5.6 3.13-9.73 6.95-13.85 13.05-16.65L13.05-16.65Q10.7-16.15 8.7-16.15L8.7-16.15Q2.4-16.15 2.4-19.65L2.4-19.65Q2.4-21.8 4.75-24.83 7.1-27.85 10.43-30.45 13.75-33.05 17.63-34.93 21.5-36.8 24.25-36.8L24.25-36.8Q28.5-36.8 28.5-33.9L28.5-33.9Q28.5-33.6 28.45-33.45L28.45-33.45Q30.65-34.15 31.75-34.15 32.85-34.15 33.15-34.08 33.45-34 33.45-33.45 33.45-32.9 33.05-32.8L33.05-32.8Q30.75-32.8 28.05-31.95L28.05-31.95Q26.95-29.3 24.18-27.03 21.4-24.75 18.9-24.75ZM19.2-26.15L19.2-26.15Q19.2-25.7 20-25.7L20-25.7Q21.5-25.7 23.55-27.53 25.6-29.35 26.5-31.4L26.5-31.4Q23.6-30.2 21.4-28.58 19.2-26.95 19.2-26.15ZM21.35 0.8L21.35 0.8Q19.1 0.8 19.1-1.65L19.1-1.65Q19.1-4.9 22.62-10.98 26.15-17.05 30.67-21.88 35.2-26.7 37.8-26.7L37.8-26.7Q38.75-26.7 38.75-25.35L38.75-25.35Q38.75-23.25 35.22-18.5 31.7-13.75 27.65-9.6 23.6-5.45 21.4-3.9L21.4-3.9Q21.3-3.1 21.3-2.83 21.3-2.55 21.35-2.2 21.4-1.85 21.75-1.3 22.1-0.75 22.92-0.75 23.75-0.75 25.85-1.73 27.95-2.7 29.55-3.7L29.55-3.7 31.15-4.7Q31.2-4.6 31.2-4.3 31.2-4 30.75-3.8L30.75-3.8Q24 0.8 21.35 0.8ZM36.95-24.15L36.95-24.15Q36.9-25.25 36.3-25.25L36.3-25.25Q34.75-25.25 31.6-21.75 28.45-18.25 25.5-13.38 22.55-8.5 21.65-5L21.65-5Q23.75-6.7 27.05-10 30.35-13.3 33.55-17.55 36.75-21.8 36.95-24.15ZM39.09-5.95L39.09-5.95Q38.8-5.95 38.8-6.3L38.8-6.3 38.95-6.65Q39.84-7.5 39.84-8.1L39.84-8.1Q39.84-8.85 39.05-8.85L39.05-8.85Q37.3-8.85 34.32-6.43 31.34-4 31.34-2.1L31.34-2.1Q31.34-1.3 32.39-1.3 33.45-1.3 34.82-2.18 36.2-3.05 37.17-3.93 38.14-4.8 38.24-4.8L38.24-4.8Q38.74-4.75 38.74-4.3L38.74-4.3Q38.74-4.1 37.97-3 37.2-1.9 37.2-1.25L37.2-1.25Q37.2-0.75 38.02-0.75 38.84-0.75 40.95-1.73 43.05-2.7 44.64-3.7L44.64-3.7 46.25-4.7Q46.3-4.6 46.3-4.3 46.3-4 45.84-3.8L45.84-3.8Q39.09 0.8 36.45 0.8L36.45 0.8Q35.14 0.8 35.14-0.5L35.14-0.5Q35.14-1.05 35.34-1.65L35.34-1.65Q34.99-1.25 33.27-0.43 31.54 0.4 30.2 0.4 28.84 0.4 28.84-0.85L28.84-0.85Q28.84-3.8 32.95-6.88 37.05-9.95 39.84-9.95L39.84-9.95Q41.5-9.95 41.5-8.55L41.5-8.55Q41.5-7.75 40.5-6.85 39.5-5.95 39.09-5.95ZM53.49-4.7L53.49-4.7Q53.14-3.35 53.14-1.8 53.14-0.25 54.44-0.25L54.44-0.25Q54.79-0.25 55.62-0.63 56.44-1 56.57-1 56.69-1 56.69-0.9L56.69-0.9Q56.69-0.3 55.64 0.35 54.59 1 53.54 1L53.54 1Q51.44 1 51.44-1.8L51.44-1.8Q51.44-2.45 51.49-2.8L51.49-2.8Q47.49 0.7 45.37 0.7 43.24 0.7 43.24-0.75L43.24-0.75Q43.24-2.9 46.92-6.13 50.59-9.35 53.89-9.8L53.89-9.8Q56.74-15.65 60.92-20.75 65.09-25.85 67.34-25.85L67.34-25.85Q67.74-25.85 67.99-25.43 68.24-25 68.24-24.6L68.24-24.6Q68.24-22.95 63.37-16.3 58.49-9.65 53.49-4.7ZM66.39-23.85L66.39-23.85Q66.39-24.25 66.09-24.25L66.09-24.25Q65.24-24.25 62.87-21.45 60.49-18.65 57.89-14.33 55.29-10 54.04-6.4L54.04-6.4Q58.69-11.3 62.54-16.55 66.39-21.8 66.39-23.85ZM45.64-1.15L45.64-1.15Q45.64-0.4 46.49-0.4L46.49-0.4Q47.84-0.4 51.74-4.15L51.74-4.15Q52.39-6.45 53.29-8.4L53.29-8.4Q50.84-7.8 48.24-5.2 45.64-2.6 45.64-1.15Z" opacity="1" transform="matrix(1,0,0,1,0,0)" fill="#ffffff" class="wordmark-text-0" data-fill-palette-color="primary" id="text-0"></path></svg></g></svg></g></svg></g></svg></g></svg></g></svg></g></svg></g><g><path d="M245.816 0c68.262 0 123.6 55.338 123.6 123.6 0 68.262-55.338 123.6-123.6 123.6-34.564 0-65.814-14.187-88.245-37.056h9.084c20.862 19.093 48.651 30.742 79.161 30.742 64.775 0 117.286-52.511 117.286-117.286 0-64.775-52.511-117.286-117.286-117.286-30.509 0-58.298 11.649-79.161 30.742l-9.084 0c22.431-22.869 53.681-37.056 88.245-37.056z" fill="#ffffff" stroke="transparent" data-fill-palette-color="tertiary"></path></g></svg></g><defs></defs></svg><rect width="395.52" height="247.2" fill="none" stroke="none" visibility="hidden"></rect></g></svg></g></svg>