<svg xmlns="http://www.w3.org/2000/svg" version="1.1" xmlns:xlink="http://www.w3.org/1999/xlink" xmlns:svgjs="http://svgjs.dev/svgjs" width="1000" height="1000" viewBox="0 0 1000 1000"><rect width="1000" height="1000" fill="#ffffff"></rect><g transform="matrix(0.7,0,0,0.7,150,218.95000000000005)"><svg viewBox="0 0 448 360" data-background-color="#111111" preserveAspectRatio="xMidYMid meet" height="803" width="1000" xmlns="http://www.w3.org/2000/svg" xmlns:xlink="http://www.w3.org/1999/xlink"><g id="tight-bounds" transform="matrix(1,0,0,1,0,0)"><svg viewBox="0 0 448 360" height="360" width="448"><rect width="448" height="360" fill="#000000" mask="url(&quot;#45246c4f-4ba8-4940-8cc1-edd54fc724a7&quot;)" data-fill-palette-color="tertiary"></rect><rect width="448" height="360" fill="#000000" mask="url(&quot;#9dd1c066-fe1d-4f2e-aad4-6454c1c1c125&quot;)" data-fill-palette-color="accent"></rect><g><svg></svg></g><g><svg viewBox="0 0 448 360" height="360" width="448"><g><path xmlns="http://www.w3.org/2000/svg" d="M193.855 44.683c1.378 0 2.494 1.116 2.495 2.494 0 1.378-1.116 2.494-2.495 2.495h-23.846l-17.167 17.167c-0.973 0.973-2.551 0.973-3.53 0-0.973-0.973-0.973-2.551 0-3.529l13.644-13.645h-40.378c-11.518 0-19.151 2.688-23.815 8.113-4.739 5.519-6.66 14.056-6.66 25.63 0 0.069 0 0.137-0.006 0.206l0.212 36.692 14.692-14.692c0.973-0.973 2.551-0.973 3.53 0 0.973 0.973 0.973 2.551 0 3.53l-18.178 18.178c0.206 35.832 0.193 71.358-0.013 107.19 25.486 25.2 50.617 50.312 75.811 75.791h25.38c1.378 0 2.494 1.116 2.495 2.495 0 1.378-1.116 2.494-2.495 2.494h-20.448l25.942 26.241 0.006-0.006c8.188 8.188 15.577 12.859 22.824 13.413 7.146 0.543 14.442-2.956 22.586-11.093l28.555-28.555h-20.722c-1.378 0-2.494-1.116-2.495-2.494 0-1.378 1.116-2.494 2.495-2.495h25.711l16.625-16.625c0.973-0.973 2.551-0.973 3.529 0 0.973 0.973 0.973 2.551 0 3.53l-13.101 13.102h40.377c11.518 0 19.151-2.688 23.815-8.113 4.739-5.519 6.66-14.056 6.66-25.63h0.013l-0.212-36.898-16.014 16.014c-0.973 0.973-2.551 0.973-3.53 0-0.973-0.973-0.973-2.551 0-3.53l19.5-19.5c-0.206-35.832-0.193-71.358 0.013-107.19-25.486-25.2-50.617-50.312-75.811-75.791h-26.147c-1.378 0-2.494-1.116-2.495-2.495 0-1.378 1.116-2.494 2.495-2.494h21.215l-25.824-26.123c-0.044-0.037-0.081-0.075-0.124-0.112-8.188-8.188-15.577-12.859-22.824-13.413-7.146-0.543-14.442 2.956-22.586 11.093l-28.555 28.555h18.858zM122.578 44.683h45.367l32.078-32.078c9.248-9.248 17.81-13.195 26.484-12.534 8.568 0.649 16.956 5.824 25.985 14.854 0.05 0.05 0.094 0.094 0.137 0.143l29.278 29.615h43.508c13.071 0 21.919 3.268 27.594 9.871 5.6 6.517 7.864 16.101 7.864 28.867 0 0.081-0.006 0.156-0.012 0.23l-0.225 39.742 28.43 28.112 0.006-0.006c9.03 9.03 14.206 17.411 14.854 25.985 0.661 8.674-3.293 17.236-12.534 26.484l-30.768 30.768 0.237 41.843h0.012c0 12.765-2.27 22.35-7.864 28.867-5.675 6.604-14.524 9.872-27.594 9.871h-45.366l-32.078 32.078c-9.248 9.248-17.81 13.195-26.484 12.534-8.568-0.649-16.956-5.824-25.985-14.854l0.006-0.006-29.421-29.758h-43.509c-13.071 0-21.919-3.268-27.594-9.872-5.6-6.517-7.864-16.101-7.863-28.866h0.012l0.231-39.972-28.293-27.969c-0.05-0.044-0.1-0.087-0.143-0.137-9.03-9.03-14.206-17.411-14.854-25.985-0.661-8.674 3.293-17.236 12.534-26.484l30.768-30.768-0.237-41.607c-0.006-0.075-0.012-0.156-0.012-0.23 0-12.765 2.27-22.35 7.864-28.867 5.675-6.604 14.524-9.872 27.594-9.871zM87.682 179.997l-0.274-47.724-27.276 27.276c-8.138 8.138-11.636 15.44-11.094 22.587 0.549 7.246 5.226 14.642 13.413 22.823 0.037 0.037 0.081 0.081 0.113 0.125l24.837 24.551 0.281-49.644zM92.303 241.483l-0.2 35.09h0.013c0 11.58 1.921 20.117 6.66 25.63 4.664 5.432 12.297 8.113 23.815 8.113h38.576l-33.55-33.936-35.308-34.903zM325.415 49.672h-38.575l33.549 33.936 35.308 34.902 0.2-34.884c-0.006-0.069-0.006-0.137-0.007-0.205 0-11.58-1.921-20.117-6.66-25.63-4.664-5.432-12.297-8.113-23.815-8.113zM360.599 130.352l-0.281 49.645 0.274 47.724 27.276-27.276c8.138-8.138 11.636-15.44 11.094-22.587-0.549-7.252-5.226-14.642-13.413-22.824l0.006-0.006-24.956-24.669z" fill="#000000" fill-rule="nonzero" stroke="none" stroke-width="1" stroke-linecap="butt" stroke-linejoin="miter" stroke-miterlimit="10" stroke-dasharray="" stroke-dashoffset="0" font-family="none" font-weight="none" font-size="none" text-anchor="none" style="mix-blend-mode: normal" data-fill-palette-color="tertiary"></path></g><g transform="matrix(1,0,0,1,112.00000000000003,144.49651963972443)"><svg viewBox="0 0 223.99999999999994 71.00696072055115" height="71.00696072055115" width="223.99999999999994"><g><svg viewBox="0 0 391.7484975157895 124.18245614035088" height="71.00696072055115" width="223.99999999999994"><g transform="matrix(1,0,0,1,167.74849751578947,0)"><svg viewBox="0 0 224 124.18245614035088" height="124.18245614035088" width="224"><g id="textblocktransform"><svg viewBox="0 0 224 124.18245614035088" height="124.18245614035088" width="224" id="textblock"><g><svg viewBox="0 0 224 124.18245614035088" height="124.18245614035088" width="224"><g transform="matrix(1,0,0,1,0,0)"><svg width="224" viewBox="2.25 -39 71.25 39.5" height="124.18245614035088" data-palette-color="#ffffff"><path d="M13-35.5L13-21.15Q15.7-21.15 17.53-21.48 19.35-21.8 20.43-22.5 21.5-23.2 21.98-24.3 22.45-25.4 22.45-26.9L22.45-26.9 24.2-26.9 24.2-13.25 22.45-13.25Q22.45-14.75 22.03-15.85 21.6-16.95 20.53-17.68 19.45-18.4 17.63-18.78 15.8-19.15 13-19.15L13-19.15 13-7.85Q13-6.2 13.4-5.13 13.8-4.05 14.78-3.38 15.75-2.7 17.35-2.43 18.95-2.15 21.3-2.15L21.3-2.15Q23.95-2.15 25.8-2.53 27.65-2.9 28.9-3.8 30.15-4.7 30.9-6.18 31.65-7.65 32.15-9.85L32.15-9.85 34.05-9.85 33.3 0 2.25 0 2.25-1.9Q4-1.95 5.08-2.2 6.15-2.45 6.75-3.05 7.35-3.65 7.55-4.75 7.75-5.85 7.75-7.6L7.75-7.6 7.75-30.9Q7.75-32.65 7.58-33.73 7.4-34.8 6.88-35.43 6.35-36.05 5.35-36.27 4.35-36.5 2.75-36.6L2.75-36.6 2.75-38.5 31.65-38.5 32.1-29.7 30.35-29.7Q30.05-31.7 29.38-32.98 28.7-34.25 27.53-35 26.35-35.75 24.55-36.05 22.75-36.35 20.2-36.35L20.2-36.35 13.85-36.35Q13-36.35 13-35.5L13-35.5ZM69.85-35.4L70.75-38.5 72.15-38.5 72.6-27 70.75-27Q69.65-31.4 66.5-33.9 63.35-36.4 58.9-36.4L58.9-36.4Q55.85-36.4 53.45-35.2 51.05-34 49.4-31.75 47.75-29.5 46.87-26.25 46-23 46-18.9L46-18.9Q46-10.85 49.35-6.53 52.7-2.2 59.05-2.2L59.05-2.2Q68.7-2.2 71.45-12.45L71.45-12.45 73.5-12.45 73.5 0 71.75 0 70.6-3.95Q65.35 0.5 57.9 0.5L57.9 0.5Q53.65 0.5 50.22-0.85 46.8-2.2 44.37-4.67 41.95-7.15 40.62-10.7 39.3-14.25 39.3-18.6L39.3-18.6Q39.3-23.15 40.7-26.9 42.1-30.65 44.62-33.35 47.15-36.05 50.67-37.52 54.2-39 58.45-39L58.45-39Q61.45-39 64.1-38.15 66.75-37.3 69.85-35.4L69.85-35.4Z" opacity="1" transform="matrix(1,0,0,1,0,0)" fill="#000000" class="wordmark-text-0" data-fill-palette-color="primary" id="text-0"></path></svg></g></svg></g></svg></g></svg></g><g transform="matrix(1,0,0,1,0,6.423070800512747)"><svg viewBox="0 0 138.432 111.33631453932539" height="111.33631453932539" width="138.432"><g><svg xmlns="http://www.w3.org/2000/svg" xmlns:xlink="http://www.w3.org/1999/xlink" version="1.1" x="0" y="0" viewBox="0 9.78600025177002 100.0003433227539 80.42699432373047" enable-background="new 0 0 100 100" xml:space="preserve" width="138.432" height="111.33631453932539" class="icon-icon-0" data-fill-palette-color="accent" id="icon-0"></svg></g></svg></g></svg></g></svg></g></svg></g><defs></defs><mask id="9dd1c066-fe1d-4f2e-aad4-6454c1c1c125"><g id="SvgjsG1468"><svg viewBox="0 0 448 360" height="360" width="448"><g><svg></svg></g><g><svg viewBox="0 0 448 360" height="360" width="448"><g></g><g transform="matrix(1,0,0,1,112.00000000000003,144.49651963972443)"><svg viewBox="0 0 223.99999999999994 71.00696072055115" height="71.00696072055115" width="223.99999999999994"><g><svg viewBox="0 0 391.7484975157895 124.18245614035088" height="71.00696072055115" width="223.99999999999994"><g transform="matrix(1,0,0,1,167.74849751578947,0)"><svg viewBox="0 0 224 124.18245614035088" height="124.18245614035088" width="224"><g id="SvgjsG1467"><svg viewBox="0 0 224 124.18245614035088" height="124.18245614035088" width="224" id="SvgjsSvg1466"><g><svg viewBox="0 0 224 124.18245614035088" height="124.18245614035088" width="224"><g transform="matrix(1,0,0,1,0,0)"><svg width="224" viewBox="2.25 -39 71.25 39.5" height="124.18245614035088" data-palette-color="#ffffff"></svg></g></svg></g></svg></g></svg></g><g transform="matrix(1,0,0,1,0,6.423070800512747)"><svg viewBox="0 0 138.432 111.33631453932539" height="111.33631453932539" width="138.432"><g><svg xmlns="http://www.w3.org/2000/svg" xmlns:xlink="http://www.w3.org/1999/xlink" version="1.1" x="0" y="0" viewBox="0 9.78600025177002 100.0003433227539 80.42699432373047" enable-background="new 0 0 100 100" xml:space="preserve" width="138.432" height="111.33631453932539" class="icon-icon-0" data-fill-palette-color="accent" id="SvgjsSvg1464"><path d="M49.942 52.994c13.552-0.488 27.103-0.977 40.653-1.465-2.527-4.177-3.159-7.831-7.989-8.461-7.229-0.94-14.458-1.883-21.688-2.826-14.023-1.827-28.05-3.654-42.075-5.48C20.101 36.792 39.724 53.361 49.942 52.994z" fill="white"></path><path d="M0 9.786c4.391 7.257 26.615 23.072 32.953 23.886 17.33 2.231 34.657 4.46 51.986 6.688-3.393-5.607-4.18-9.35-10.312-10.959-8.904-2.341-17.812-4.683-26.717-7.023C31.94 18.182 15.97 13.984 0 9.786z" fill="white"></path><path d="M63.108 66.207c10.413-2.219 20.826-4.439 31.241-6.66-2.028-3.346-2.034-5.359-5.827-5.189-6.158 0.273-12.314 0.549-18.471 0.822-11.343 0.506-22.686 1.014-34.028 1.518C37.298 58.064 54.94 67.947 63.108 66.207z" fill="white"></path><path d="M87.682 90.213c5.725-3.719 7.262-7.721 10.519-13.807 3.651-6.824 1.257-7.844-2.821-14.596-0.417-0.688-5.842 0.232-6.453 0.904-0.745 0.818-0.248 5.455-0.294 6.496C88.315 76.211 87.998 83.213 87.682 90.213z" fill="white"></path><path d="M86.35 63.447c-3.795 0.809-8.604 0.191-9.572 4.229-1.373 5.736-2.746 11.475-4.12 17.211C81.904 82.678 86.028 71.582 86.35 63.447z" fill="white"></path><path d="M74.666 66.121c-9.148 1.953-8.956 4.611-12.879 13.18C68.007 78.711 73.811 71.941 74.666 66.121z" fill="white"></path></svg></g></svg></g></svg></g></svg></g></svg></g><defs><mask></mask></defs></svg></g></mask><linearGradient x1="0.054" x2="0.941" y1="0.5" y2="0.5" id="0f5aede7-4a44-4e41-8c4a-3cd2680ca318"><stop stop-color="#9c7945" offset="0"></stop><stop stop-color="#faf3aa" offset="0.498"></stop><stop stop-color="#9c7945" offset="1"></stop></linearGradient><mask id="45246c4f-4ba8-4940-8cc1-edd54fc724a7"><g id="SvgjsG1477"><svg viewBox="0 0 448 360" height="360" width="448"><g><svg></svg></g><g><svg viewBox="0 0 448 360" height="360" width="448"><g><path xmlns="http://www.w3.org/2000/svg" d="M193.855 44.683c1.378 0 2.494 1.116 2.495 2.494 0 1.378-1.116 2.494-2.495 2.495h-23.846l-17.167 17.167c-0.973 0.973-2.551 0.973-3.53 0-0.973-0.973-0.973-2.551 0-3.529l13.644-13.645h-40.378c-11.518 0-19.151 2.688-23.815 8.113-4.739 5.519-6.66 14.056-6.66 25.63 0 0.069 0 0.137-0.006 0.206l0.212 36.692 14.692-14.692c0.973-0.973 2.551-0.973 3.53 0 0.973 0.973 0.973 2.551 0 3.53l-18.178 18.178c0.206 35.832 0.193 71.358-0.013 107.19 25.486 25.2 50.617 50.312 75.811 75.791h25.38c1.378 0 2.494 1.116 2.495 2.495 0 1.378-1.116 2.494-2.495 2.494h-20.448l25.942 26.241 0.006-0.006c8.188 8.188 15.577 12.859 22.824 13.413 7.146 0.543 14.442-2.956 22.586-11.093l28.555-28.555h-20.722c-1.378 0-2.494-1.116-2.495-2.494 0-1.378 1.116-2.494 2.495-2.495h25.711l16.625-16.625c0.973-0.973 2.551-0.973 3.529 0 0.973 0.973 0.973 2.551 0 3.53l-13.101 13.102h40.377c11.518 0 19.151-2.688 23.815-8.113 4.739-5.519 6.66-14.056 6.66-25.63h0.013l-0.212-36.898-16.014 16.014c-0.973 0.973-2.551 0.973-3.53 0-0.973-0.973-0.973-2.551 0-3.53l19.5-19.5c-0.206-35.832-0.193-71.358 0.013-107.19-25.486-25.2-50.617-50.312-75.811-75.791h-26.147c-1.378 0-2.494-1.116-2.495-2.495 0-1.378 1.116-2.494 2.495-2.494h21.215l-25.824-26.123c-0.044-0.037-0.081-0.075-0.124-0.112-8.188-8.188-15.577-12.859-22.824-13.413-7.146-0.543-14.442 2.956-22.586 11.093l-28.555 28.555h18.858zM122.578 44.683h45.367l32.078-32.078c9.248-9.248 17.81-13.195 26.484-12.534 8.568 0.649 16.956 5.824 25.985 14.854 0.05 0.05 0.094 0.094 0.137 0.143l29.278 29.615h43.508c13.071 0 21.919 3.268 27.594 9.871 5.6 6.517 7.864 16.101 7.864 28.867 0 0.081-0.006 0.156-0.012 0.23l-0.225 39.742 28.43 28.112 0.006-0.006c9.03 9.03 14.206 17.411 14.854 25.985 0.661 8.674-3.293 17.236-12.534 26.484l-30.768 30.768 0.237 41.843h0.012c0 12.765-2.27 22.35-7.864 28.867-5.675 6.604-14.524 9.872-27.594 9.871h-45.366l-32.078 32.078c-9.248 9.248-17.81 13.195-26.484 12.534-8.568-0.649-16.956-5.824-25.985-14.854l0.006-0.006-29.421-29.758h-43.509c-13.071 0-21.919-3.268-27.594-9.872-5.6-6.517-7.864-16.101-7.863-28.866h0.012l0.231-39.972-28.293-27.969c-0.05-0.044-0.1-0.087-0.143-0.137-9.03-9.03-14.206-17.411-14.854-25.985-0.661-8.674 3.293-17.236 12.534-26.484l30.768-30.768-0.237-41.607c-0.006-0.075-0.012-0.156-0.012-0.23 0-12.765 2.27-22.35 7.864-28.867 5.675-6.604 14.524-9.872 27.594-9.871zM87.682 179.997l-0.274-47.724-27.276 27.276c-8.138 8.138-11.636 15.44-11.094 22.587 0.549 7.246 5.226 14.642 13.413 22.823 0.037 0.037 0.081 0.081 0.113 0.125l24.837 24.551 0.281-49.644zM92.303 241.483l-0.2 35.09h0.013c0 11.58 1.921 20.117 6.66 25.63 4.664 5.432 12.297 8.113 23.815 8.113h38.576l-33.55-33.936-35.308-34.903zM325.415 49.672h-38.575l33.549 33.936 35.308 34.902 0.2-34.884c-0.006-0.069-0.006-0.137-0.007-0.205 0-11.58-1.921-20.117-6.66-25.63-4.664-5.432-12.297-8.113-23.815-8.113zM360.599 130.352l-0.281 49.645 0.274 47.724 27.276-27.276c8.138-8.138 11.636-15.44 11.094-22.587-0.549-7.252-5.226-14.642-13.413-22.824l0.006-0.006-24.956-24.669z" fill="white" fill-rule="nonzero" stroke="none" stroke-width="1" stroke-linecap="butt" stroke-linejoin="miter" stroke-miterlimit="10" stroke-dasharray="" stroke-dashoffset="0" font-family="none" font-weight="none" font-size="none" text-anchor="none" style="mix-blend-mode: normal"></path></g><g transform="matrix(1,0,0,1,112.00000000000003,144.49651963972443)"><svg viewBox="0 0 223.99999999999994 71.00696072055115" height="71.00696072055115" width="223.99999999999994"><g><svg viewBox="0 0 391.7484975157895 124.18245614035088" height="71.00696072055115" width="223.99999999999994"><g transform="matrix(1,0,0,1,167.74849751578947,0)"><svg viewBox="0 0 224 124.18245614035088" height="124.18245614035088" width="224"><g id="SvgjsG1476"><svg viewBox="0 0 224 124.18245614035088" height="124.18245614035088" width="224" id="SvgjsSvg1475"><g><svg viewBox="0 0 224 124.18245614035088" height="124.18245614035088" width="224"><g transform="matrix(1,0,0,1,0,0)"><svg width="224" viewBox="2.25 -39 71.25 39.5" height="124.18245614035088" data-palette-color="#ffffff"></svg></g></svg></g></svg></g></svg></g><g transform="matrix(1,0,0,1,0,6.423070800512747)"><svg viewBox="0 0 138.432 111.33631453932539" height="111.33631453932539" width="138.432"><g><svg xmlns="http://www.w3.org/2000/svg" xmlns:xlink="http://www.w3.org/1999/xlink" version="1.1" x="0" y="0" viewBox="0 9.78600025177002 100.0003433227539 80.42699432373047" enable-background="new 0 0 100 100" xml:space="preserve" width="138.432" height="111.33631453932539" class="icon-icon-0" data-fill-palette-color="accent" id="SvgjsSvg1473"></svg></g></svg></g></svg></g></svg></g></svg></g><defs><mask></mask></defs><mask><g id="SvgjsG1472"><svg viewBox="0 0 448 360" height="360" width="448"><g><svg></svg></g><g><svg viewBox="0 0 448 360" height="360" width="448"><g></g><g transform="matrix(1,0,0,1,112.00000000000003,144.49651963972443)"><svg viewBox="0 0 223.99999999999994 71.00696072055115" height="71.00696072055115" width="223.99999999999994"><g><svg viewBox="0 0 391.7484975157895 124.18245614035088" height="71.00696072055115" width="223.99999999999994"><g transform="matrix(1,0,0,1,167.74849751578947,0)"><svg viewBox="0 0 224 124.18245614035088" height="124.18245614035088" width="224"><g id="SvgjsG1471"><svg viewBox="0 0 224 124.18245614035088" height="124.18245614035088" width="224" id="SvgjsSvg1470"><g><svg viewBox="0 0 224 124.18245614035088" height="124.18245614035088" width="224"><g transform="matrix(1,0,0,1,0,0)"><svg width="224" viewBox="2.25 -39 71.25 39.5" height="124.18245614035088" data-palette-color="#ffffff"></svg></g></svg></g></svg></g></svg></g><g transform="matrix(1,0,0,1,0,6.423070800512747)"><svg viewBox="0 0 138.432 111.33631453932539" height="111.33631453932539" width="138.432"><g><svg xmlns="http://www.w3.org/2000/svg" xmlns:xlink="http://www.w3.org/1999/xlink" version="1.1" x="0" y="0" viewBox="0 9.78600025177002 100.0003433227539 80.42699432373047" enable-background="new 0 0 100 100" xml:space="preserve" width="138.432" height="111.33631453932539" class="icon-icon-0" data-fill-palette-color="accent" id="SvgjsSvg1469"></svg></g></svg></g></svg></g></svg></g></svg></g><defs><mask></mask></defs></svg></g></mask></svg></g></mask><linearGradient x1="0.054" x2="0.941" y1="0.5" y2="0.5" id="4aff6dd6-5b69-4423-b30e-bc3cd6eefcf9"><stop stop-color="#8c8c8c" offset="0"></stop><stop stop-color="#e3e4e5" offset="0.498"></stop><stop stop-color="#8c8c8c" offset="1"></stop></linearGradient></svg><rect width="448" height="360" fill="none" stroke="none" visibility="hidden"></rect></g></svg></g></svg>